<?xml version="1.0" encoding="UTF-8"?>
<svg xmlns="http://www.w3.org/2000/svg" viewBox="0 0 796.63 175.8">
  <defs>
    <style>
      .cls-1 {
        stroke: #3cc1cc;
      }

      .cls-1, .cls-2, .cls-3 {
        fill: none;
        stroke-linecap: round;
        stroke-miterlimit: 10;
        stroke-width: 17.02px;
      }

      .cls-2 {
        stroke: #416ad9;
      }

      .cls-3 {
        stroke: #260e66;
      }

      .cls-4 {
        fill: #fff;
      }

      .cls-5 {
        fill: #9286b2;
      }

      .cls-6 {
        fill: #a0f0f0;
      }

      .cls-7 {
        fill: #b3c3f0;
      }

      .cls-8 {
        fill: #191136;
      }
    </style>
  </defs>
  <g id="Layer_1" data-name="Layer 1"/>
  <g id="Layer_2" data-name="Layer 2">
    <g id="bcf584b3-8033-4e5c-a564-1a98c3e84e1e">
      <path class="cls-4" d="M776.83,175.8H19.81c-10.89,0-19.81-7.2-19.81-16V16C0,7.2,8.91,0,19.81,0H776.83c10.89,0,19.81,7.2,19.81,16V159.8c0,8.8-8.91,16-19.81,16Z"/>
      <g>
        <path class="cls-8" d="M274.78,122.3c-2.41,.78-5.35,1.42-8.81,1.91-3.47,.49-6.87,.74-10.19,.74-7.79,0-13.68-2.3-17.68-6.9-4-4.6-6-10.9-6-18.9s1.68-14.56,5.04-19.27c3.36-4.71,8.34-7.06,14.92-7.06,1.77,0,3.5,.2,5.2,.58,1.7,.39,3.19,.94,4.46,1.65v-22.72l13.06-2.23V122.3Zm-29.41-23.78c0,4.46,.83,8.11,2.5,10.94,1.66,2.83,4.34,4.25,8.02,4.25,1.06,0,2.05-.03,2.97-.11,.92-.07,1.87-.18,2.87-.32v-27.18c-.99-.57-2.12-1.04-3.4-1.43-1.28-.39-2.62-.58-4.04-.58-3.12,0-5.38,1.24-6.8,3.72-1.42,2.48-2.12,6.05-2.12,10.72Z"/>
        <path class="cls-8" d="M285.51,99.26c0-4.39,.67-8.25,2.02-11.57,1.34-3.33,3.11-6.11,5.31-8.34,2.19-2.23,4.71-3.91,7.54-5.04,2.83-1.13,5.73-1.7,8.71-1.7,7.36,0,12.95,2.18,16.78,6.53,3.82,4.35,5.73,10.71,5.73,19.06,0,.85-.02,1.74-.05,2.65-.04,.92-.09,1.66-.16,2.23h-32.38c0,3.26,1.34,5.82,4.03,7.7,2.69,1.88,6.16,2.81,10.41,2.81,2.62,0,5.11-.28,7.49-.85,2.37-.57,4.37-1.13,6-1.7l1.8,11.15c-2.27,.78-4.67,1.43-7.22,1.96-2.55,.53-5.42,.8-8.6,.8-4.25,0-8.05-.55-11.41-1.65-3.36-1.1-6.23-2.72-8.6-4.88-2.37-2.16-4.19-4.83-5.47-8.02-1.28-3.19-1.91-6.9-1.91-11.15Zm33.45-5.2c0-1.34-.18-2.64-.53-3.88-.35-1.24-.92-2.35-1.7-3.35-.78-.99-1.77-1.79-2.97-2.39-1.2-.6-2.69-.9-4.46-.9s-3.17,.28-4.41,.85c-1.24,.57-2.27,1.35-3.08,2.34-.81,.99-1.45,2.12-1.91,3.4-.46,1.28-.76,2.58-.9,3.93h19.96Z"/>
        <path class="cls-8" d="M355.9,123.79c-3.19-6.3-6.42-13.68-9.71-22.14-3.29-8.46-6.42-17.72-9.4-27.77h13.7c.64,2.69,1.4,5.56,2.28,8.6,.88,3.05,1.82,6.11,2.81,9.19,.99,3.08,2,6.07,3.02,8.97,1.03,2.9,2,5.56,2.92,7.96,.92-2.4,1.95-5.06,3.08-7.96,1.13-2.9,2.25-5.89,3.35-8.97,1.1-3.08,2.16-6.14,3.19-9.19,1.02-3.04,1.86-5.91,2.5-8.6h13.27c-2.97,10.05-6.27,19.31-9.88,27.77s-7.01,15.84-10.19,22.14h-10.94Z"/>
        <path class="cls-8" d="M438.2,98.84c0,3.82-.43,7.34-1.28,10.57s-2.09,5.98-3.72,8.28-3.68,4.09-6.16,5.36c-2.48,1.28-5.35,1.91-8.6,1.91s-6.76-.81-10.3-2.44v18.79h-13.06V75.47c2.41-.78,5.36-1.41,8.87-1.91,3.5-.49,6.96-.74,10.35-.74,7.72,0,13.63,2.34,17.73,7.01,4.1,4.67,6.16,11.01,6.16,19.01Zm-13.27,.42c0-4.46-.89-8.12-2.66-10.99-1.77-2.87-4.46-4.3-8.07-4.3-.99,0-2.05,.05-3.19,.16-1.13,.11-2.09,.2-2.87,.27v27.39c.85,.57,1.98,1.03,3.4,1.38,1.42,.36,2.83,.53,4.25,.53,3.11,0,5.41-1.26,6.9-3.77,1.49-2.51,2.23-6.07,2.23-10.67Z"/>
        <path class="cls-8" d="M491.61,98.73c0,3.96-.57,7.56-1.7,10.78-1.13,3.22-2.73,6-4.78,8.34-2.05,2.34-4.51,4.14-7.38,5.41-2.87,1.28-6.07,1.91-9.61,1.91s-6.74-.64-9.61-1.91c-2.87-1.27-5.35-3.08-7.43-5.41-2.09-2.34-3.7-5.11-4.83-8.34-1.13-3.22-1.7-6.81-1.7-10.78s.58-7.45,1.75-10.67c1.17-3.22,2.8-5.98,4.88-8.28,2.09-2.3,4.58-4.07,7.49-5.31,2.9-1.24,6.05-1.86,9.45-1.86s6.64,.62,9.5,1.86c2.87,1.24,5.35,3.01,7.43,5.31,2.09,2.3,3.7,5.06,4.83,8.28,1.13,3.22,1.7,6.78,1.7,10.67Zm-33.77,.11c0,4.46,.8,8.07,2.39,10.83,1.59,2.76,4.16,4.14,7.7,4.14s5.96-1.38,7.7-4.14c1.73-2.76,2.6-6.37,2.6-10.83s-.8-8.05-2.39-10.78c-1.59-2.72-4.16-4.09-7.7-4.09s-5.96,1.36-7.7,4.09c-1.74,2.73-2.6,6.32-2.6,10.78Z"/>
        <path class="cls-8" d="M540.98,87.15c-.85-.21-1.86-.42-3.02-.64s-2.35-.41-3.56-.58c-1.2-.17-2.37-.3-3.5-.37-1.13-.07-2.09-.11-2.87-.11-1.84,0-3.65,.09-5.41,.26-1.77,.18-3.58,.52-5.42,1.01v37.06h-13.17v-46.61c3.47-1.28,7.03-2.3,10.67-3.08,3.65-.78,7.91-1.17,12.79-1.17,.71,0,1.72,.04,3.03,.11,1.31,.07,2.71,.2,4.19,.37,1.49,.18,2.99,.39,4.51,.64,1.52,.25,2.88,.58,4.09,1.01l-2.34,12.1Z"/>
        <path class="cls-8" d="M562.85,84.71h-11.36v-10.83h11.36v-12.53l13.06-2.12v14.65h20.92v10.83h-20.92v20.17c0,1.84,.17,3.33,.53,4.46,.35,1.13,.85,2.02,1.49,2.66,.64,.64,1.41,1.06,2.34,1.27,.92,.21,1.95,.32,3.08,.32,1.2,0,2.32-.04,3.35-.11,1.03-.07,2.02-.19,2.97-.37s1.95-.44,2.97-.8c1.03-.35,2.14-.81,3.34-1.38l1.8,11.26c-2.41,.99-5.01,1.7-7.8,2.12s-5.5,.64-8.12,.64c-3.04,0-5.73-.25-8.07-.74s-4.32-1.45-5.95-2.87c-1.63-1.42-2.87-3.42-3.72-6-.85-2.58-1.27-5.96-1.27-10.14v-20.49Z"/>
        <path class="cls-8" d="M626.25,72.61c4.1,0,7.52,.48,10.25,1.43,2.73,.96,4.9,2.3,6.53,4.04,1.63,1.74,2.79,3.86,3.5,6.37,.71,2.51,1.06,5.33,1.06,8.44v29.73c-1.91,.42-4.74,.92-8.49,1.49-3.75,.57-7.96,.85-12.64,.85-3.19,0-6.07-.28-8.65-.85-2.59-.57-4.8-1.5-6.64-2.81-1.84-1.31-3.26-3.01-4.25-5.1-.99-2.09-1.49-4.65-1.49-7.7s.57-5.34,1.7-7.33c1.13-1.98,2.66-3.57,4.57-4.78,1.91-1.2,4.11-2.07,6.58-2.6,2.48-.53,5.06-.8,7.75-.8,3.4,0,6.4,.28,9.02,.85v-1.59c0-2.48-.78-4.55-2.33-6.21-1.56-1.66-4.25-2.5-8.07-2.5-2.48,0-4.87,.18-7.17,.53-2.3,.35-4.16,.78-5.57,1.27l-1.81-10.51c1.63-.57,3.93-1.08,6.9-1.54s6.05-.69,9.24-.69Zm1.17,41.84c1.41,0,2.79-.02,4.14-.05,1.34-.03,2.51-.12,3.5-.27v-11.47c-.85-.14-1.88-.27-3.08-.37-1.21-.11-2.3-.16-3.29-.16-1.34,0-2.65,.09-3.93,.26-1.27,.18-2.39,.48-3.34,.9-.96,.42-1.72,1.03-2.28,1.8-.57,.78-.85,1.8-.85,3.08,0,2.27,.85,3.88,2.55,4.83,1.7,.96,3.89,1.43,6.58,1.43Z"/>
        <path class="cls-8" d="M703.44,121.66c-.21,.14-.69,.39-1.43,.74-.74,.35-1.72,.73-2.92,1.11-1.21,.39-2.67,.73-4.41,1.01-1.74,.28-3.7,.42-5.89,.42-6.02,0-10.41-1.79-13.17-5.36-2.76-3.57-4.14-8.79-4.14-15.66V61.57h-13.8v-10.83h26.86v54.15c0,3.4,.67,5.7,2.02,6.9,1.34,1.21,3.04,1.81,5.1,1.81,2.62,0,4.81-.35,6.58-1.06,1.77-.71,2.94-1.17,3.5-1.38l1.7,10.51Z"/>
        <path class="cls-8" d="M736.41,83.23c0,3.12-.95,5.49-2.87,7.11-1.91,1.63-4.11,2.44-6.58,2.44-1.28,0-2.48-.21-3.61-.64-1.13-.42-2.14-1.04-3.03-1.86-.89-.81-1.59-1.8-2.12-2.97s-.8-2.53-.8-4.09,.26-2.81,.8-3.98,1.24-2.14,2.12-2.92c.88-.78,1.89-1.38,3.03-1.8,1.13-.42,2.33-.64,3.61-.64,2.48,0,4.67,.81,6.58,2.44,1.91,1.63,2.87,3.93,2.87,6.9Zm0,32.17c0,3.12-.95,5.49-2.87,7.11-1.91,1.63-4.11,2.44-6.58,2.44-1.28,0-2.48-.21-3.61-.64-1.13-.42-2.14-1.04-3.03-1.86-.89-.81-1.59-1.8-2.12-2.97s-.8-2.53-.8-4.09,.26-2.81,.8-3.98,1.24-2.14,2.12-2.92c.88-.78,1.89-1.38,3.03-1.8,1.13-.42,2.33-.64,3.61-.64,2.48,0,4.67,.81,6.58,2.44,1.91,1.63,2.87,3.93,2.87,6.9Z"/>
      </g>
      <line class="cls-2" x1="68.72" y1="58.58" x2="128.72" y2="58.58"/>
      <line class="cls-1" x1="68.72" y1="88.62" x2="128.72" y2="88.62"/>
      <line class="cls-3" x1="68.72" y1="118.67" x2="128.72" y2="118.67"/>
      <line class="cls-2" x1="156.16" y1="58.58" x2="216.16" y2="58.58"/>
      <line class="cls-3" x1="156.16" y1="118.67" x2="216.16" y2="118.67"/>
      <line class="cls-1" x1="156.16" y1="118.67" x2="216.16" y2="58.58"/>
      <circle class="cls-7" cx="68.72" cy="58.58" r="8.5"/>
      <circle class="cls-7" cx="156.16" cy="58.58" r="8.5"/>
      <circle class="cls-7" cx="128.72" cy="58.58" r="8.5"/>
      <circle class="cls-6" cx="68.72" cy="88.64" r="8.5"/>
      <circle class="cls-6" cx="128.72" cy="88.64" r="8.5"/>
      <circle class="cls-6" cx="216.16" cy="58.58" r="8.5"/>
      <circle class="cls-6" cx="156.16" cy="118.67" r="8.5"/>
      <circle class="cls-5" cx="68.72" cy="118.67" r="8.5"/>
      <circle class="cls-5" cx="128.72" cy="118.67" r="8.5"/>
      <circle class="cls-5" cx="216.16" cy="118.67" r="8.5"/>
    </g>
  </g>
</svg>